<svg width="34" height="34" viewBox="0 0 34 34" fill="none" xmlns="http://www.w3.org/2000/svg">
<path d="M20.7109 32.7608C22.4882 32.6835 24.7291 32.7608 26.5064 32.6835C26.12 31.2926 25.27 28.5108 27.2018 25.188C28.0518 23.6426 29.1337 22.2517 29.9837 20.7062C33.6155 13.9062 30.6791 4.55621 23.3382 1.92894C20.5564 1.07894 17.6973 1.07894 14.8382 1.38803C13.5246 1.54257 12.2882 1.77439 11.1291 2.23803C7.72911 3.78348 5.56547 6.41075 4.56093 9.9653C4.25184 11.0471 4.25184 12.2835 4.56093 13.3653C4.87002 14.6789 4.48365 15.6835 3.7882 16.688C3.24729 17.3835 2.78365 18.1562 2.32002 18.9289C1.93365 19.5471 2.0882 20.1653 2.70638 20.5517C3.09274 20.8608 3.55638 21.0153 4.02002 21.3244C4.56093 21.6335 4.79275 22.0198 4.40638 22.638C3.71093 23.7198 4.09729 24.8017 4.56093 25.8835C4.87002 26.5017 4.79274 27.1198 4.71547 27.6608C4.40638 29.6698 6.3382 30.288 7.80638 30.0562C8.50184 29.9789 9.27456 29.9017 10.0473 29.9017C11.1291 29.9017 11.7473 30.7517 11.9791 31.6789C12.2109 32.6835 13.2155 32.838 13.4473 32.838C13.8337 32.838 14.8382 32.838 14.9927 32.838" stroke="#1D3443" stroke-width="1.5" stroke-miterlimit="10" stroke-linecap="round" stroke-linejoin="round"/>
<path d="M9.81705 25.5755C10.3718 25.5755 10.8216 25.1257 10.8216 24.571C10.8216 24.0162 10.3718 23.5664 9.81705 23.5664C9.26225 23.5664 8.8125 24.0162 8.8125 24.571C8.8125 25.1257 9.26225 25.5755 9.81705 25.5755Z" fill="#1D3443"/>
<path d="M13.215 21.2464C13.5991 21.2464 13.9104 20.935 13.9104 20.5509C13.9104 20.1668 13.5991 19.8555 13.215 19.8555C12.8309 19.8555 12.5195 20.1668 12.5195 20.5509C12.5195 20.935 12.8309 21.2464 13.215 21.2464Z" fill="#1D3443"/>
<path d="M12.5183 24.0288C12.7744 24.0288 12.982 23.8213 12.982 23.5652C12.982 23.3091 12.7744 23.1016 12.5183 23.1016C12.2623 23.1016 12.0547 23.3091 12.0547 23.5652C12.0547 23.8213 12.2623 24.0288 12.5183 24.0288Z" fill="#1D3443"/>
<path d="M12.056 26.5808C12.1841 26.5808 12.2879 26.477 12.2879 26.349C12.2879 26.221 12.1841 26.1172 12.056 26.1172C11.928 26.1172 11.8242 26.221 11.8242 26.349C11.8242 26.477 11.928 26.5808 12.056 26.5808Z" fill="#1D3443"/>
<path d="M10.5873 21.4793C10.7153 21.4793 10.8191 21.3755 10.8191 21.2474C10.8191 21.1194 10.7153 21.0156 10.5873 21.0156C10.4593 21.0156 10.3555 21.1194 10.3555 21.2474C10.3555 21.3755 10.4593 21.4793 10.5873 21.4793Z" fill="#1D3443"/>
</svg>
