<svg width="34" height="34" viewBox="0 0 34 34" fill="none" xmlns="http://www.w3.org/2000/svg">
<path d="M11.5672 3.33594H9.31086C8.86665 3.33594 8.5 3.69554 8.5 4.1468V9.44207C8.5 12.7772 11.0877 15.4777 14.2818 15.4777C17.4759 15.4777 20.0636 12.7772 20.0636 9.44207V4.21026C20.0636 3.76605 19.704 3.3994 19.2527 3.3994H17.2502" stroke="#1D3443" stroke-width="1.742" stroke-miterlimit="10"/>
<path d="M11.6719 1.54688V5.07236" stroke="#1D3443" stroke-width="1.742" stroke-miterlimit="10" stroke-linecap="round"/>
<path d="M17.3125 1.54688V5.07236" stroke="#1D3443" stroke-width="1.742" stroke-miterlimit="10" stroke-linecap="round"/>
<path d="M14.2812 15.4805V23.1167C14.2812 24.3717 15.2966 25.3871 16.5517 25.3871H16.7773C18.0324 25.3871 19.0477 24.3717 19.0477 23.1167V21.3257C19.0477 20.0706 20.063 19.0553 21.3181 19.0553C22.5732 19.0553 23.5885 20.0706 23.5885 21.3257V28.3837" stroke="#1D3443" stroke-width="1.742" stroke-miterlimit="10"/>
<path d="M23.6453 32.8609C24.8798 32.8609 25.8805 31.8602 25.8805 30.6258C25.8805 29.3913 24.8798 28.3906 23.6453 28.3906C22.4109 28.3906 21.4102 29.3913 21.4102 30.6258C21.4102 31.8602 22.4109 32.8609 23.6453 32.8609Z" stroke="#1D3443" stroke-width="1.742" stroke-miterlimit="10"/>
</svg>
