<svg width="34" height="34" viewBox="0 0 34 34" fill="none" xmlns="http://www.w3.org/2000/svg">
<path d="M23.4805 3.55418C22.7077 2.70418 21.6259 2.85872 20.6987 3.16781C19.7714 3.55418 19.2305 4.40417 19.2305 5.48599C19.2305 12.8269 19.2305 20.1678 19.2305 27.586C19.2305 29.2087 20.3123 30.3678 21.7032 30.8314C23.1714 31.2951 24.9486 30.5224 25.6441 29.286" stroke="#1D3443" stroke-width="1.5" stroke-miterlimit="10" stroke-linecap="round" stroke-linejoin="round"/>
<path d="M5.55356 16.6914C4.31719 18.0823 4.16265 19.6278 5.1672 21.2505C5.24447 21.405 4.47174 22.1005 5.08992 23.646" stroke="#1D3443" stroke-width="1.5" stroke-miterlimit="10" stroke-linecap="round" stroke-linejoin="round"/>
<path d="M31.3628 16.8438C32.5992 18.2347 32.7537 19.7801 31.7492 21.4028C31.6719 21.5574 32.4446 22.2528 31.8264 23.7983C31.5174 24.571 30.5128 25.421 29.5855 25.5756C29.1219 25.6528 29.1219 25.9619 29.0446 26.3483C28.581 27.971 27.1901 28.8983 25.7219 28.7438C24.0219 28.4347 22.7855 27.0438 22.8628 25.4983C22.9401 24.8801 23.2492 24.3392 23.481 23.721" stroke="#1D3443" stroke-width="1.5" stroke-miterlimit="10" stroke-linecap="round" stroke-linejoin="round"/>
<path d="M29.5854 16.7689C31.9808 17.078 32.9081 14.2189 31.9808 12.3643C31.2854 11.0507 29.7399 10.3552 28.349 10.5871C26.4945 10.8189 25.5672 12.2098 25.3354 13.9098C25.1808 14.9143 24.8717 15.2234 23.8672 15.2234" stroke="#1D3443" stroke-width="1.5" stroke-miterlimit="10" stroke-linecap="round" stroke-linejoin="round"/>
<path d="M6.78879 16.7664C4.93425 16.7664 4.47061 14.9118 4.7797 13.3664C5.24334 11.1255 7.17516 9.96638 9.41607 10.7391C10.807 11.2027 11.4252 12.2846 11.657 13.6755C11.8115 14.7573 11.9661 14.9891 13.1252 15.1437" stroke="#1D3443" stroke-width="1.5" stroke-miterlimit="10" stroke-linecap="round" stroke-linejoin="round"/>
<path d="M14.3624 16.9221C16.8352 16.3812 16.1397 13.7539 14.2852 13.7539" stroke="#1D3443" stroke-width="1.5" stroke-miterlimit="10" stroke-linecap="round" stroke-linejoin="round"/>
<path d="M22.632 16.9221C20.1593 16.3812 20.8547 13.7539 22.7093 13.7539" stroke="#1D3443" stroke-width="1.5" stroke-miterlimit="10" stroke-linecap="round" stroke-linejoin="round"/>
<path d="M22.168 8.26953C23.3271 9.81499 24.5634 9.89226 26.2634 8.96499" stroke="#1D3443" stroke-width="1.5" stroke-miterlimit="10" stroke-linecap="round" stroke-linejoin="round"/>
<path d="M14.9791 8.11328C14.0518 9.42692 12.8928 10.3542 10.9609 9.04055" stroke="#1D3443" stroke-width="1.5" stroke-miterlimit="10" stroke-linecap="round" stroke-linejoin="round"/>
<path d="M29.7409 12.8281C29.7409 14.5281 29.0455 15.3781 27.5 15.6099" stroke="#1D3443" stroke-width="1.5" stroke-miterlimit="10" stroke-linecap="round" stroke-linejoin="round"/>
<path d="M7.25391 13.3672C7.40845 14.5263 8.02663 15.2217 9.18572 15.5308" stroke="#1D3443" stroke-width="1.5" stroke-miterlimit="10" stroke-linecap="round" stroke-linejoin="round"/>
<path d="M28.6589 23.0256C28.4271 21.6347 28.0407 21.3256 26.418 21.0938" stroke="#1D3443" stroke-width="1.5" stroke-miterlimit="10" stroke-linecap="round" stroke-linejoin="round"/>
<path d="M27.4201 24.957C27.2656 26.1934 26.8792 26.5798 25.4883 26.7343" stroke="#1D3443" stroke-width="1.5" stroke-miterlimit="10" stroke-linecap="round" stroke-linejoin="round"/>
<path d="M26.2625 17.3086C25.0261 17.6177 24.6398 18.0813 24.5625 19.2404" stroke="#1D3443" stroke-width="1.5" stroke-miterlimit="10" stroke-linecap="round" stroke-linejoin="round"/>
<path d="M10.6523 17.2305C11.6569 17.4623 12.3523 18.0032 12.4296 19.085" stroke="#1D3443" stroke-width="1.5" stroke-miterlimit="10" stroke-linecap="round" stroke-linejoin="round"/>
<path d="M15.8307 20.168C13.9761 20.168 13.7443 22.3316 15.8307 22.3316" stroke="#1D3443" stroke-width="1.5" stroke-miterlimit="10" stroke-linecap="round" stroke-linejoin="round"/>
<path d="M20.6992 20.168C22.5538 20.168 22.7856 22.3316 20.6992 22.3316" stroke="#1D3443" stroke-width="1.5" stroke-miterlimit="10" stroke-linecap="round" stroke-linejoin="round"/>
<path d="M15.9087 27.6641C15.7542 28.9777 15.4451 29.2868 14.3633 29.3641" stroke="#1D3443" stroke-width="1.5" stroke-miterlimit="10" stroke-linecap="round" stroke-linejoin="round"/>
<path d="M21.0859 27.6641C21.2405 28.9777 21.5496 29.2868 22.6314 29.3641" stroke="#1D3443" stroke-width="1.5" stroke-miterlimit="10" stroke-linecap="round" stroke-linejoin="round"/>
<path d="M21.9336 4.79213C22.8609 3.86486 24.02 3.63304 25.0245 3.86486C26.1836 4.17395 27.0336 5.02395 27.4972 6.0285C27.6518 6.33759 27.8063 6.56941 28.1927 6.72395C29.8927 7.26486 30.8972 8.50123 30.1245 10.5876" stroke="#1D3443" stroke-width="1.5" stroke-miterlimit="10" stroke-linecap="round" stroke-linejoin="round"/>
<path d="M13.2801 3.55418C14.0528 2.70418 15.1347 2.85872 16.0619 3.16781C16.9892 3.55418 17.5301 4.40417 17.5301 5.48599C17.5301 12.8269 17.5301 20.1678 17.5301 27.586C17.5301 29.2087 16.4483 30.3678 15.0574 30.8314C13.5892 31.2951 10.4983 30.9087 10.3438 27.4314" stroke="#1D3443" stroke-width="1.5" stroke-miterlimit="10" stroke-linecap="round" stroke-linejoin="round"/>
<path d="M14.7482 4.78928C13.8982 3.862 12.6619 3.55291 11.6573 3.862C10.5755 4.17109 9.72552 5.02109 9.18461 6.02564C9.03006 6.33473 8.87552 6.56655 8.48915 6.72109C6.78915 7.262 5.78461 8.49837 6.55734 10.5847" stroke="#1D3443" stroke-width="1.5" stroke-miterlimit="10" stroke-linecap="round" stroke-linejoin="round"/>
<path d="M6.78943 19.7023C6.32579 19.7795 6.32579 20.0886 6.32579 20.475C6.32579 21.2477 6.32579 22.0977 6.32579 22.8705C6.32579 23.4886 6.0167 23.7977 5.39852 23.7977C4.54852 23.7977 3.69852 23.7977 2.92579 23.7977C2.46216 23.7977 2.23034 23.9523 2.30761 24.4159C2.30761 25.1114 2.30761 25.8068 2.30761 26.425C2.30761 26.9659 2.6167 27.1205 3.08034 27.0432C3.85307 27.0432 4.70307 27.0432 5.47579 27.0432C6.09398 27.0432 6.40307 27.3523 6.40307 27.9705C6.40307 28.8205 6.40307 29.6705 6.40307 30.4432C6.40307 30.9068 6.55761 31.0614 7.02125 31.1386C9.72579 31.2932 9.72579 31.2932 9.72579 28.5886C9.72579 26.8886 9.57125 27.0432 11.2712 27.0432C11.8122 27.0432 12.3531 27.0432 12.9712 27.0432C13.5122 27.0432 13.8212 26.7341 13.8212 26.1932C13.8212 26.1159 13.8212 26.0386 13.8212 26.0386C13.8985 23.7205 13.8985 23.7205 11.5803 23.7205C9.72579 23.7205 9.72579 23.7205 9.72579 21.8659C9.72579 19.625 9.72579 19.625 7.48488 19.625C7.33034 19.625 7.09852 19.625 6.94398 19.625" stroke="#1D3443" stroke-width="1.5" stroke-miterlimit="10" stroke-linecap="round" stroke-linejoin="round"/>
</svg>
