<svg width="34" height="34" viewBox="0 0 34 34" fill="none" xmlns="http://www.w3.org/2000/svg">
<path d="M27.5456 16.7633C27.7774 15.0633 28.6274 13.5951 29.4774 12.2042C30.0956 11.1224 30.8683 10.1178 31.5637 9.11329C32.0274 8.41783 32.3365 7.6451 32.2592 6.7951C32.2592 6.17692 31.9501 5.55874 31.1774 5.24965C30.4046 4.94056 29.8637 5.0951 29.3228 5.63601C29.0137 5.9451 28.7046 6.40874 28.3183 6.64056C27.7774 7.02692 27.1592 7.18147 26.3865 6.94965C24.4546 6.40874 22.6774 5.48147 20.8228 4.70874C17.9637 3.3951 14.9501 3.7042 12.2455 5.0951C10.6228 5.9451 9.00009 6.56329 7.30009 7.1042C6.52737 7.33601 5.90919 6.87238 5.36828 6.48601C4.98191 6.17692 4.75009 5.79056 4.36373 5.48147C3.90009 5.01783 3.35918 4.94056 2.741 5.24965C2.12282 5.55874 1.73646 5.9451 1.73646 6.64056C1.65918 7.56783 2.04555 8.41783 2.50918 9.26783C3.05009 10.1951 3.74555 11.0451 4.28646 11.9724C5.13646 13.5178 6.21828 14.986 6.29555 16.8406" stroke="#1D3443" stroke-width="1.5" stroke-miterlimit="10" stroke-linecap="round" stroke-linejoin="round"/>
<path d="M6.99219 7.33594C7.14673 8.49503 7.45582 9.65412 7.61037 10.7359C7.84219 12.5132 9.00128 13.7496 9.92855 15.1405C11.2422 17.2268 12.7876 19.2359 14.1786 21.3223C14.874 22.4041 15.4922 23.4859 15.4149 24.8768C15.4149 25.1087 15.4149 25.4178 15.3376 25.6496C14.4876 27.0405 14.5649 28.5859 14.6422 30.1314" stroke="#1D3443" stroke-width="1.5" stroke-miterlimit="10" stroke-linecap="round" stroke-linejoin="round"/>
<path d="M6.21917 16.9171C4.90553 17.8444 4.36462 19.3898 5.13735 20.4717C5.75553 21.3217 7.30098 21.7853 7.99644 21.3217C9.15553 20.5489 9.15553 19.0808 8.61462 18.0762C8.15098 17.2262 7.22371 16.9171 6.29644 16.8398" stroke="#1D3443" stroke-width="1.5" stroke-miterlimit="10" stroke-linecap="round" stroke-linejoin="round"/>
<path d="M27.4691 16.8398C25.9236 17.1489 25.1509 17.7671 24.9963 19.0035C24.8418 20.0853 25.46 21.2444 26.3872 21.4762C27.3145 21.708 28.4736 21.0898 28.86 20.0853C29.3236 19.0035 29.1691 18.1535 28.3191 17.3808C28.0872 17.1489 27.8554 16.9944 27.5463 16.8398" stroke="#1D3443" stroke-width="1.5" stroke-miterlimit="10" stroke-linecap="round" stroke-linejoin="round"/>
<path d="M7.60959 11.8164C6.83686 11.8937 5.98686 11.5073 5.21413 11.7391C4.90504 11.8164 4.67322 11.8937 4.44141 12.0482" stroke="#1D3443" stroke-width="1.5" stroke-miterlimit="10" stroke-linecap="round" stroke-linejoin="round"/>
<path d="M26.8512 7.33594C26.6966 8.49503 26.3875 9.65412 26.233 10.7359C26.0012 12.5132 24.8421 13.7496 23.9148 15.1405C22.6012 17.2268 21.0557 19.2359 19.6648 21.3223C18.9693 22.4041 18.3512 23.4859 18.4284 24.8768C18.4284 25.1087 18.4284 25.4178 18.5057 25.6496C19.3557 27.0405 19.2784 28.5859 19.2012 30.1314" stroke="#1D3443" stroke-width="1.5" stroke-miterlimit="10" stroke-linecap="round" stroke-linejoin="round"/>
<path d="M26.2305 11.8164C27.0032 11.8937 27.8532 11.5073 28.6259 11.7391C28.935 11.8164 29.1668 11.8937 29.3986 12.0482" stroke="#1D3443" stroke-width="1.5" stroke-miterlimit="10" stroke-linecap="round" stroke-linejoin="round"/>
</svg>
