<svg width="34" height="34" viewBox="0 0 34 34" fill="none" xmlns="http://www.w3.org/2000/svg">
<path d="M8.23036 10.277C8.23036 8.96341 8.53945 7.64977 9.08036 6.49068C10.394 3.63159 13.5622 0.927047 18.1985 1.46796C21.9076 1.85432 25.0758 4.86796 25.694 8.4225C26.0804 10.3543 25.9258 16.9225 25.9258 20.0134C25.9258 21.7134 25.6167 26.5043 24.9213 27.8952C23.3758 30.9861 20.2076 32.5316 16.8076 32.4543C13.2531 32.4543 10.394 30.368 9.00309 27.1225C8.07582 24.9589 8.15309 11.977 8.23036 10.277Z" stroke="#1D3443" stroke-width="1.5" stroke-miterlimit="10" stroke-linecap="round" stroke-linejoin="round"/>
<path d="M11.7068 7.18789C10.1614 9.81516 11.2432 13.5243 13.7932 15.147C15.8023 16.3833 18.5841 16.3833 20.5159 14.9924C22.4477 13.6015 23.4523 11.0515 22.9113 8.73335C22.3704 6.41516 20.3614 4.48335 18.0432 4.09698C15.4932 3.63335 13.0977 5.02425 11.7068 7.18789Z" stroke="#1D3443" stroke-width="1.5" stroke-miterlimit="10" stroke-linecap="round" stroke-linejoin="round"/>
<path d="M25.54 15.4531C23.4536 16.3031 16.1127 19.7804 14.6445 20.4759" stroke="#1D3443" stroke-width="1.5" stroke-miterlimit="10" stroke-linecap="round" stroke-linejoin="round"/>
<path d="M19.126 23.8008C17.9669 24.4962 10.5487 28.2053 10.0078 28.4371" stroke="#1D3443" stroke-width="1.5" stroke-miterlimit="10" stroke-linecap="round" stroke-linejoin="round"/>
<path d="M8.23047 16.457C9.08047 16.9979 23.4532 26.0389 24.9214 26.9661" stroke="#1D3443" stroke-width="1.5" stroke-miterlimit="10" stroke-linecap="round" stroke-linejoin="round"/>
<path d="M19.0471 4.78906C17.7335 7.41634 14.5653 9.19361 11.6289 8.42088" stroke="#1D3443" stroke-width="1.5" stroke-miterlimit="10" stroke-linecap="round" stroke-linejoin="round"/>
<path d="M17.4258 7.26172C18.9712 8.49808 20.6712 9.19354 22.6803 8.96172" stroke="#1D3443" stroke-width="1.5" stroke-miterlimit="10" stroke-linecap="round" stroke-linejoin="round"/>
<path d="M18.5067 12.8281C17.5021 13.2145 16.4976 13.2145 15.5703 12.8281" stroke="#1D3443" stroke-width="1.5" stroke-miterlimit="10" stroke-linecap="round" stroke-linejoin="round"/>
</svg>
