<svg width="34" height="34" viewBox="0 0 34 34" fill="none" xmlns="http://www.w3.org/2000/svg">
<g clip-path="url(#clip0_35750_168060)">
<path d="M25.7428 22.9538L28.2393 20.3452C28.7274 18.8813 27.2823 18.3369 26.9444 18.4119C26.6066 18.487 26.1561 18.8998 24.8609 19.9695C23.5658 21.0392 22.8149 22.353 22.5521 22.9535C22.0571 24.0848 21.5435 26.0241 21.5435 26.0241C21.2455 27.1804 20.7933 29.5775 20.7933 32.4182" stroke="#1D3443" stroke-width="1.5" stroke-miterlimit="10" stroke-linecap="round" stroke-linejoin="round"/>
<path d="M27.8439 18.7141C27.0746 15.5796 26.8496 13.6277 26.7746 12.5391C26.6996 11.6382 26.8874 10.6998 27.3379 9.91153C28.0888 8.5978 28.7644 8.82308 28.7644 8.82308C29.1397 10.1369 29.59 11.4132 29.9653 12.7271C30.622 14.8855 31.5602 17.1379 31.6726 19.4276C31.7287 21.1356 30.9966 22.9561 29.8891 24.2135C29.1946 24.9829 28.2561 25.5459 27.5053 26.2966C26.9422 26.8596 26.5104 27.7792 26.5104 27.7792C26.2486 28.3523 25.725 30.073 25.725 32.3711" stroke="#1D3443" stroke-width="1.5" stroke-miterlimit="10" stroke-linecap="round" stroke-linejoin="round"/>
<path d="M8.6322 22.9538L6.13573 20.3452C5.6476 18.8813 7.09274 18.3369 7.43058 18.4119C7.76843 18.487 8.21891 18.8998 9.51405 19.9695C10.8092 21.0392 11.5601 22.353 11.8229 22.9535C12.3179 24.0848 12.8315 26.0241 12.8315 26.0241C13.1295 27.1804 13.5817 29.5775 13.5817 32.4182" stroke="#1D3443" stroke-width="1.5" stroke-miterlimit="10" stroke-linecap="round" stroke-linejoin="round"/>
<path d="M6.53115 18.7141C7.30037 15.5796 7.52541 13.6277 7.60038 12.5391C7.67537 11.6382 7.4876 10.6998 7.03708 9.91153C6.28621 8.5978 5.61056 8.82308 5.61056 8.82308C5.2353 10.1369 4.78498 11.4132 4.40973 12.7271C3.75303 14.8855 2.8148 17.1379 2.70241 19.4276C2.64626 21.1356 3.37841 22.9561 4.48588 24.2135C5.18039 24.9829 6.11888 25.5459 6.86969 26.2966C7.4328 26.8596 7.86457 27.7792 7.86457 27.7792C8.12636 28.3523 8.64995 30.073 8.64995 32.3711" stroke="#1D3443" stroke-width="1.5" stroke-miterlimit="10" stroke-linecap="round" stroke-linejoin="round"/>
<path d="M14.9152 7.29629V4.92187C14.9152 4.50893 15.2249 4.19922 15.6378 4.19922H19.2511C19.664 4.19922 19.9737 4.50893 19.9737 4.92187V7.29629C19.9737 7.70924 20.2834 8.01895 20.6964 8.01895H23.3805C23.7934 8.01895 24.1031 8.32865 24.1031 8.7416V12.4581C24.1031 12.871 23.7934 13.1807 23.3805 13.1807H20.6964C20.2834 13.1807 19.9737 13.4904 19.9737 13.9034V16.2778C19.9737 16.6908 19.664 17.0005 19.2511 17.0005H15.5346C15.1216 17.0005 14.8119 16.6908 14.8119 16.2778V13.9034C14.8119 13.4904 14.5022 13.1807 14.0893 13.1807H11.7148C11.3019 13.1807 10.9922 12.871 10.9922 12.4581V8.7416C10.9922 8.32865 11.3019 8.01895 11.7148 8.01895H14.1925C14.6054 8.01895 14.9152 7.70924 14.9152 7.29629Z" stroke="#1D3443" stroke-width="1.5" stroke-miterlimit="10"/>
</g>
<defs>
<clipPath id="clip0_35750_168060">
<rect width="34" height="34" fill="white"/>
</clipPath>
</defs>
</svg>
